<?xml version="1.0" encoding="UTF-8"?>
<svg version="1.1" viewBox="0 0 2048 1163" width="602" height="342" xmlns="http://www.w3.org/2000/svg">
<path transform="translate(582,191)" d="m0 0h13l4 1 18 1 27 7 19 9 12 8 7 7 5 4 5-1 8-9 3-1h11l19 3 21 2 10 3 5 5 2 5v18l-1 10v99l2 26v74l-2 49-1 37-5 21-6 15-6 10-12 18-8 14-7 9-10 10-19 14-15 7-28 9-19 2h-77l-16-1-14-3-5-2-11-2-20-8-13-8-14-12-11-12-7-10-6-13-1-3v-11l7-8 8-10h2l2-4h2v-2l6-4 8-3 21-1 11 1 15 6 19 11 16 8 10 3 6 2 9 2 2 1h37l8-3 13-5 14-6 10-9 8-13 3-10v-34l-6 2-10 8-11 10-10 7-15 8-3 2-15 1-4 2h-20l-1-3-19 1-14-3-11-3-20-8-25-12-9-7-15-13-14-15-13-18-9-16-7-14-7-25-2-10-1-4-1-45 1-9 2-6 1-15 5-19 5-11 8-16 6-9 9-12 8-8 7-8 15-13 13-9 14-10 22-11 13-4 18-5zm10 87-17 2-20 8-17 10-11 9v2l-3 1-7 10-10 18-9 22-1 4v13l6 22 7 20 8 12 9 10 8 7 11 8 15 7 15 5 5 1h20l27-9 12-7 7-4 8-7 10-10 8-10 8-14 5-18 1-3v-19l-5-24-6-17-6-10-18-18-10-7-16-8-17-5-7-1z" fill="#062230"/>
<path transform="translate(62,37)" d="m0 0h14l10 4 11 8 9 10 5 7 5 14-1 14-2 16-1 36-2 14-1 36-1 12-3 12 13-5 14-8 8-5 30-12 14-1 13-1 13-2 27 3 21 6 17 8 17 12 15 14 10 10 13 17 13 28 4 15 2 8 2 13 3 16 1 20 2 2 1 15 2 1 1 9v47l-1 9-4 13-8 16-14 22-12 17-12 13-7 8-9 10-10 6-19 10-21 6-11 2-9 2-6 2-4-1h-42l-5-4-18-6-12-5-8-6-11-7-13-12-2-1-1 24-2 10-3 3-18 4-4 2-13-1h-7l-3 2-10-1-11-4-8-6-6-7-1-11 3-26 1-33 1-17v-27l-1-38v-131l-1-182-1-10 8-14 8-8 10-7 14-8zm118 239-14 4-15 8-16 12-15 15-8 14-3 10-3 20-1 13v12l5 22 6 21 10 17 6 8 5 6 8 7 5 4 16 8 13 5 7 1h15l22-5 15-6 8-6 14-14 9-16 3-8 1-10-1-14-4-15-12-33-7-19h8l4 1 3-2-1-10-5-12-9-13-12-12-13-7-26-6z" fill="#072231"/>
<path transform="translate(1577,43)" d="m0 0h11l11 7 11 11 8 11 1 2v121l-1 20-1 126-1 197-4 11-5 5-11 2h-22l-15-3-8-4-10-9-6-10-4-11-1-5-3 1-11 14-10 13-11 9-12 6-12 3-6 4-14 1-33 1-12-4-14-2-16-5-15-5-20-11-18-13-8-8-7-6-7-8-13-17-9-14-7-13-5-12-6-18-3-7-1-5v-13l-2-5v-33l3-33 3-6 1-13 5-17 11-21 9-14 9-11 13-14 13-10 10-7 9-6 17-9 8-4 23-8 13-2 7-2h43l17 4 22 9 15 9 10 8 10 10 4 2-2-34v-37l1-12 1-74 10-13 14-11 12-5zm-140 235-17 2-21 7-17 8-14 10-9 9-7 10-7 14-5 22v21l5 21 6 16 7 14 8 11 7 8 8 6 30 15 16 4 7 1h14l13-4 10-4 16-8 10-6 10-9 10-13 8-14 8-25 2-10v-14l-7-25-5-12-10-16-9-10-12-12-11-7-12-6-11-3-8-1z" fill="#062130"/>
<path transform="translate(1835,190)" d="m0 0h42l24 4 25 8 22 11 11 8 14 10 12 11 9 10 12 18 13 25 8 23 2 14 2 6v152l-2 7-1 50-4 10-5 5-11 5-4 1h-26l-18-4-13-10-4-5-4-25-1-8-5 5-7 10-7 8-9 6-17 8-12 4-11 1-13 4-10 2-26 1-5-2-19-3-25-9-19-11-12-9-10-9-11-12-13-18-8-13-8-16-6-15-5-18-1-25 1-22 5-14 4-9 5-7 1-15 4 4 3 8 3 1h22l26-4 19-5 14-3 16-3h32l31 1 7 2 25 1 25 5 15 4 4-1-2-8-2-13-6-12-9-11-11-9-16-10-14-5-16-1-2-2h-12l-4 2-16 1-12 5-9 2-17 8-11 7-11 9-7 6-5 6-6 3-17 3h-8l-8-2-14-2h-11l-3 1 1-19 3-9 7-17 7-13 9-13 12-14 10-9 13-10 10-7 17-9 8-4 23-7 8-2 11-1zm-10 222-23 3-6 3-7 8-3 7v18l10 11 12 9 8 5 18 7h24l11-3 9-2 19-10 11-9 17-17 3-5 1-5v-7l-2-5-5-3-18-3-19-2z" fill="#052130"/>
<path transform="translate(996,785)" d="m0 0h32l21 3 25 6 20 8 15 8 18 13 6 5 7 8 12 15 12 17 9 15 4 8 4 13 8 32 2 16v24l-2 15-4 15-7 22-6 12-12 17-13 16-13 13-14 10-13 9-16 8-16 6-30 9-13 3-19 1-15-2-23-4-25-9-17-9-16-11-11-10-5-5-8-9-13-18-10-17-8-20-6-25-1-38 1-20 3-16 4-15 13-34 8-15 9-10 7-8 8-7 17-13 11-8 13-8 14-6 24-8z" fill="#0BCC95"/>
<path transform="translate(176,788)" d="m0 0h23l29 5 21 6 23 11 14 10 12 11 11 13 13 19 8 11 7 15 6 18 6 29 1 9v39l-3 17-5 19-8 20-6 11-8 11-7 7-9 11-11 9-13 10-11 8-15 8-21 7-29 7-11 2-18-1-28-5-20-6-14-6-22-13-17-13-11-11-11-14-10-13-11-20-7-21-5-26-1-33 1-22 5-21 5-13 10-19 15-22 9-10 7-8 11-9 10-7 10-6 21-10 25-9 12-3z" fill="#06A2FD"/>
<path transform="translate(1870,786)" d="m0 0 15 2 25 5 18 6 23 11 18 14 12 11 13 13 10 13 10 15 7 14 4 17 2 11 4 17 1 14-1 20-4 24-5 23-6 16-10 19-11 13-8 10-12 13-16 12-23 11-14 7-21 7-20 4h-9l-16 1-31-7-15-5-16-8-14-8-11-8-13-10-13-13-7-9-8-10-6-11-7-11-9-25-3-14v-38l1-29 4-22 6-16 18-33 9-11 11-9 8-7 18-13 14-8 21-8 19-5 27-4z" fill="#FD3C21"/>
<path transform="translate(1428,792)" d="m0 0h22l17 1 24 4 18 6 19 9 14 10 11 9 19 19 12 16 11 22 7 21 3 14 3 11 2 20-1 24-4 17-8 23-9 21-7 13-12 16-20 20-16 12-15 9-15 7-24 8-27 6-13-1-24-4-23-7-15-6-17-11-20-14-8-7-9-9-7-10-10-15-8-16-8-20-5-20-2-22v-18l2-20 6-30 7-22 8-13 8-12 8-10 14-14 18-13 17-9 30-10 19-4z" fill="#F8A906"/>
<path transform="translate(601,792)" d="m0 0 20 1 34 5 16 8 14 8 18 13 13 12 8 8 11 14 7 11 11 23 5 18 3 18 2 6 1 8v39l-2 12-5 19-11 21-8 14-11 14-12 14-22 18-13 8-16 8-24 9-14 5-9 2h-25l-21-4-25-8-16-8-12-8-13-10-10-8-10-10-9-11-12-15-10-20-4-9-4-17-3-30v-21l2-18 3-19 7-21 6-14 7-12 11-14 7-7 6-7 11-8 10-6 13-7 9-6 26-12 21-5z" fill="#FECF07"/>
<path transform="translate(994,190)" d="m0 0h41l9 2 14 2 25 7 16 7 23 14 16 12 11 9 16 16 10 13 11 17 9 20 3 9 3 10 1 14 2 2v72l-4 16-22 36-12 21-11 12-8 10-9 9-14 10-6 4-14 9-21 11-8 3-13 3-12 2-9 1-2 4h-4v-2l-21 1h-9l-10 1-5-3-1-2-14-1-16-4-8-3-13-5-20-10-18-13-8-7-14-14-11-14-8-11-9-15-8-17-6-17-6-31v-52l4-24 6-13 7-16 7-14 8-12 13-17 15-16 12-9 13-9 10-6 12-6 9-4 26-8 19-2zm13 86-20 4-16 6-16 10-9 7-7 8-5 5-12 20-7 16-1 8v12l1 15 5 17 6 13 7 13 7 9 9 10 8 7 23 12 20 8h30l19-5 30-15 12-11 13-18 11-21 4-15 1-18-1-11-6-19-9-19-10-13-12-11-14-9-15-8-19-5-15-1-3-1z" fill="#062230"/>
<path transform="translate(494,560)" d="m0 0 12 1 15 6 19 11 16 8 10 3 6 2 9 2 2 1h37l8-3 18-5 2-1h6l-1 5-3 6-4 11v12l2 6v17l2 14v6l-3 5 1 4 2 2-4 1v2l-12 1h-77l-16-1-14-3-5-2-11-2-20-8-13-8-14-12-11-12-7-10-6-13-1-3v-11l7-8 8-10h2l2-4h2v-2l6-4 8-3z" fill="#082331"/>
<path transform="translate(765,552)" d="m0 0h2l-1 9-4 14-8 16-14 21-8 14-7 9-10 10-19 14-15 7-28 9h-7l2-3-2-6 3-4-1-15-1-5v-17l-2-6v-12l5-14 4-8-8 2-9 2 4-3 14-6h3l-1 2 2 1 5-4 8-3h6l5 4 5 2 5 4 6 2 15 2h8l6 1 9-2v-2l8-6 8-8 5-2 4-9 2-4z" fill="#0A3041"/>
<path transform="translate(758,929)" d="m0 0 3 2 2 6 1 8v39l-2 12-5 19-11 21-8 14-11 14-12 14-22 18-13 8-16 8-24 9-14 5-9 2h-15l-9-2v-1h6v-7l-9-7-1-6 1-3 5-3 17-4 10-1 29-6 11-4 8-4 9-7 8-6h2l1-3 14-9 8-7h3l2-4 7-7 7-11 3-12 3-13 8-16 2-3 1-6h2l1-2 1 6 4-15-1-16v-12z" fill="#FCBF0F"/>
<path transform="translate(1618,166)" d="m0 0h1v29l-1 20-1 126-1 197-4 11-5 5-11 2h-22l-15-3-8-4-10-9-6-10-4-11-1-5-2-2 6-3h21l3-1 6 2 3-1v-2l10-2 2-4h2v-2l5-3 2-3 4-14 4-4v-12l5-19h3v-2h2l5 13 2 2 1-20 2-245 1-1z" fill="#0B3041"/>
<path transform="translate(1577,43)" d="m0 0h11l11 7 11 11 8 11 1 2v92l-1 25-1 1-1 8-2-2v-26l1-3-2-15-2-31v-13l1-18-2 19h-2l-1 2v-4l-2-1 2-14 1-5-1-11-2-6h-2l2 5 2 6v3l-5-1v-2h2l-2-5-2-1 1 3-1 2-3-1-2-4-4-1-8-1-6-1h-4l1-7 4-3 4 1v-2l10 1v-2h3l-2-1-1-5-4-2-1 3-7-1v1l-6 2-4 2 1 5-6 2 1 5 1 7-2 7h-3l-1-2h-2l1 5 2 4-3 4h-7l-2-3v-3l2-1-4-2-2 10 1 7 3 3-2 2 1 1 9 2-2-4 1-3h2l1 9 1 4-5 5-5-2h-2l-1 7-2-2-2 2-1-7-2 17-1 19-3 13-2 20-2 28h-2v-11l-1-6v-128l10-13 14-11 12-5z" fill="#041B2C"/>
<path transform="translate(1734,257)" d="m0 0 9 2 9 5 3 8 2 2h5l1 2 5 1 1 3h2v2l12 3v7l-1 2h-2l-2 8 3 1-10 8-7 6-5 6-6 3-17 3h-8l-8-2-14-2h-11l-3 1 1-19 3-9 5-13 2 2 7-8 3-5 9-9 6-4 3-3z" fill="#082D3E"/>
<path transform="translate(62,37)" d="m0 0h14l10 4 11 8 9 10 5 7 5 14-1 14-2 16-1 36-3 19-1 23h-1l-3-12 1-18v-11l-2 3-2-17 1-4h-2v-2h-2l-1 3-2-2v-11l2 1 1 4 3 3 1-9v-18l2-5v-8l-3-6-3 1-1 2v7l2 4-5 3h-2l1 10-1 5-4-4v-5h-2l-1 2-4-11v-2h3v2l4-1-5-3-1-6v-4h-2v2h-2l-1-3-2-1v-3l5-1 1-4 2-2 6 3 2-3h2l-1-3 2-2-2-2-7-2h-9l-5 3-9 9-5 3-5 4-3 1-3-3v-2h-13l-2 1 2 1-1 5 2 6-3 10-3 25-2 3 1 2-2 3-1 12h2l-1 3h3l1 8-4 1v5l1 1 2-2 2 20-1 6v16l-3 9-2 4-1-4-1-73-1-35v-31l7-10 11-10 19-11z" fill="#071D2E"/>
<path transform="translate(1428,792)" d="m0 0h22l17 1 24 4 18 6 19 9 14 10 11 9 5 6-4-2-9-8-16-11-17-9-8-2-11-3-9-1h-9l-4 1-2 6-9 3-11 4-12 3-31 3-6 4-1 2-3-1-5 2 1 3-8 4h-8l-9 2v2l-6 1-4-2-10 2-1-3 3-6 7-7h2l1-4-11 3-14 11-13 13-11 16-12 21-2 2 1-5 6-11 10-16 9-11 14-14 18-13 17-9 30-10 19-4z" fill="#FDBF06"/>
<path transform="translate(1259,332)" d="m0 0h1v18l-2 38 2-1 1-30 2-17 2-6h1v47l-1 19 1-9 2-5 1 4 1 20-2 7v8l5 8 5 6 3 10 8 10v3h2l4 4 1 6 3 1v3l3 1v3l6 2 1 7v2l-8-2 7 14 4 2v3l2 1v2h2l1-2h2v-2l3 1 1 5 9 7 18 11 7 4v2l4 1 7 4 13 4 7 2-2 3 5 2h2v-3l8 2 5 3 3 4-4 1 1 2-14-2-16-5-15-5-20-11-18-13-8-8-7-6-7-8-13-17-9-14-7-13-5-12-6-18-3-7-1-5v-13l-2-5v-33l3-33z" fill="#1D313F"/>
<path transform="translate(494,560)" d="m0 0 12 1 15 6 19 11 16 8 10 3 11 3 1 7-11-1v-2l-7-1-14-4-5-1-1-3-10-3-7 1-19 2-4-1h-3v2l-12 1-1-3h-2v4h-8l-8-2-1 2-5-1v-2l-9 3-5 4v14l-1 2h-2l-3-11 2-9 4-6 8-10h2l2-4h2v-2l6-4 8-3z" fill="#071C2C"/>
<path transform="translate(1380,281)" d="m0 0 3 1h5l2 3-1 4-1 1 3 2-12 6-12 9-7 7-7 10-7 14-5 22v21l4 20-2-1-2-7-5-2-6-5-4-4-1-7-1-4h-2v-22l4-9 2-5 2-8 5-7 4-11 13-15 12-7z" fill="#0B3141"/>
<path transform="translate(1679,405)" d="m0 0 2 3 1 21h2v4h2l4 7 2 8v4h2l5 13 6 10 5 6 6 12 10 13 2 4 3 1-1-3 4-2 3 3v2h3l4 7 4 3 8 4 6 1 10 10 4 3v2h3v2l7 1 10 4 13 4 14 2 4 2h10l26-2 3 1 1 4-10 3-10 2-26 1-5-2-19-3-25-9-19-11-12-9-10-9-11-12-13-18-8-13-8-16-6-15-5-18z" fill="#152937"/>
<path transform="translate(994,190)" d="m0 0h41l9 2 14 2 25 7 16 7 23 14 16 12 11 9 16 16 10 13 11 17 9 20 1 5-6-1v-2h-2l-7-9-7-14-2-5-3-4 1-1-2-1v-3l-5-1-1-4-4-1-4-5v-2h-3l-16-20-7-6-9-5-7-5-1-2-4-2-3-3-12-5-15-7-7-2-2-2-10-2 1 2 3 2-16-2 1-2 6-1v-2l-15-2 1 2-19-1-2 1h-20l-17 4-5-1v2l-7 1-5 2 2-4-5 2-9 2-6 2 1-2-10 2 3-3 32-10 19-2z" fill="#283C49"/>
<path transform="translate(1695,338)" d="m0 0 4 4 3 8 3 1h22l26-4 9-1v2h-8v2l-6 3-4 4h-2l-1 3-5 3-10 10h-2v2l-4 3h-2v2h-2v2h-2v2l-8 7-5 6-10 5-4-2-4-3-1-5 2-5-3 1v9h-1v-14l5-14 4-9 5-7z" fill="#062B3C"/>
<path transform="translate(1835,361)" d="m0 0 8 1h5l1 1 5-1-3 3-15 3-9 4-9 1h-6v4l8-2 7 1 5-1 13 3 5-1 4-2 8-2 5-1-4 4-7 3-2 4 2 1h-3v4l-9 6h-13l-5-1-7 1h-18l-10 3-10-2-4-3-5-1 3-6 9 1 11-5h8l-4-4-1-3-5-3-2 3-9 1-3-3 5-2v-2h10l4-1-2-2 7-1 20-1 11-1z" fill="#03192A"/>
<path transform="translate(1885,192)" d="m0 0 11 1 25 7 25 12 9 6 18 13 12 11 9 10 12 18 13 25 8 23 2 14 2 6-1 32h-1l-4-26-1-2-1-11-2-10-4-1-2 1-1-12-4-11v-4h-2l-8-17-8-16-6-7-6-8-10-9-20-14-21-10-4-2v-2h-5l-5-3-9-3h-4l-4 1-12-3 2-4-4-3zm3 2v2h2v-2z" fill="#1D3241"/>
<path transform="translate(1193,391)" d="m0 0 4 4 7 2v19l-4 16-22 36-12 21-11 12-2 1v-2h-10l-1-6 4-7 8-9 7-8 5-6 3-6 4-6 6-11 4-6 1-9 4-9 3-18 1-3z" fill="#113848"/>
<path transform="translate(768,286)" d="m0 0h1l1 76 2 26v74l-2 49-1 37h-1v-75l-7-3-5-17-2-26 1-11 3-10 1-2v-5l3-1 2 7 5 7v-25l-2-49z" fill="#153F48"/>
<path transform="translate(1409,190)" d="m0 0h43l17 4 22 9 15 9 10 8 11 11v2l-5-2-14-10-8-6-7-4-2 2-16-8-15-5h-6l1-2h-28l-9 3-11 3h-5l2-2h-7l-3-1v2l-10 2-16 4 3-5-6 1-8 4-2-1 8-5 26-9 13-2z" fill="#18212A"/>
<path transform="translate(1802,336)" d="m0 0h32l31 1 7 2 25 1v2l3 1-26 1-22 4-7 1-33 1h-31l-4 1h-10l-5-1 1-3 11-4 1-2z" fill="#121C26"/>
<path transform="translate(1772,342)" d="m0 0 3 1-12 5-1-3zm125-1 10 1 9 2 2 2-14 1-21 2-15 4-1 2-13 2h-15l-5 1-19 1-9 1-22-1-4 1-19-5-6-1v-2l-2-1 1-3h8v2h15l7-1h39l22-1 17-3 14-2 21-1z" fill="#061B2B"/>
<path transform="translate(837,341)" d="m0 0h2l1 10-2 10 1 2-1 4 3 17 2 22v6l-1 2 1 13 5 7 5 17 3 12 1 5h2v2h2v2h2l6 10 2 7 2 6 4 2 6 6v2l3 1 2 3v5l-7-6-12-14-10-14-9-15-8-17-6-17-6-31v-52l1-6h1v44l1-10v-18l3-4z" fill="#112735"/>
<path transform="translate(467,501)" d="m0 0 4 2 8 8 7 3 2 3 5 1 4-2v-3-3l8 1 9 8 2 1 10 1 5 3 1 5h8l3 2v3h7l5 3v3l-13-3h-4-1l17 6 3 1 3 3 9 1v1l9 1v1l-16 1-14-3-11-3-20-8-25-12-9-7-15-13z" fill="#0F2636"/>
<path transform="translate(494,560)" d="m0 0 12 1 15 6 15 9 1 4h-23l-25-1-18-1-15 6-6 2v-3l15-15 2-3h2v-2l5-2z" fill="#08121E"/>
<path transform="translate(2029,437)" d="m0 0h1l1 33v20l-2 7-1 50-4 10-5 5-4 2h-9l6-7 1-2h2l2-9-1-9 3-33 5-42 2-13z" fill="#142937"/>
<path transform="translate(239,291)" d="m0 0 5 2 5 3 9 6 5 5 4 12 1 8-1 5h4l2 5-1 14-1 2-1 20 1 9v9l2 6v7h-2l-4-15-12-33-6-16v-3l8-1 4 1 2-1-1-10-5-12-9-13-9-9z" fill="#133645"/>
<path transform="translate(352,442)" d="m0 0 3 1v4h2l-1 5-8 16-14 22-12 17-12 13-7 8-3 2 1-5-2-5 1-3h2l1-4 4-6 7-9 8-11 5-6 7-12 4-5 3-5 4-7 4-8z" fill="#1D4151"/>
<path transform="translate(24,515)" d="m0 0h2l-1 22h-2l1 2 2-2h3l6 12 3 3 9 4 4-1 5-1 2 1h11 3 11l-1 4-3 1 1 1 7 1-4 2-8 3-13-1h-7l-3 2-10-1-11-4-8-6-6-7-1-11 2-18h1v10l2 1 2-8z" fill="#1D313E"/>
<path transform="translate(1319,507)" d="m0 0 3 1 1 5 9 7 18 11 7 4v2l4 1 7 4 13 4 7 2-2 3 5 2h2v-3l8 2 5 3 3 4-4 1 1 2-14-2-16-5-15-5-20-11-18-13-8-8 2-2-1-4 1-3h2z" fill="#132938"/>
<path transform="translate(131,532)" d="m0 0h6v5l3 1v2l7 2 2-3 5 6 4 3 6 2 3 3 7 1 4 2 13 1h19l5-1v3l8-4 5 1 1 4h12v1l-15 2-6 3-6-1h-42l-5-4-18-6-12-5-6-5-1-3v-3l-1-4z" fill="#1D303B"/>
<path transform="translate(1805,406)" d="m0 0h10l2 2v3l5-1h60l-2-2 5-1h3l10-1h26l9 5 3 5 1 7-4 1-3-2-2 3-2-5-8-3-33-4h-60l-23 3-6 3-4 3v-2h-2l-2-4 2-5 8-4z" fill="#133544"/>
<path transform="translate(1084,302)" d="m0 0 4 2 4-1 9 3 2 1-1-3 6 1 4 9 2 3 7 21 4 8v14l1 3v8l-1 2h-2l-1-1v10h-2v5h-1v-14l-1-11-6-19-9-19-10-13-9-8z" fill="#0B2130"/>
<path transform="translate(449,604)" d="m0 0 4 5v3h-2v2h3l7 11v2l4 2 6 5-2-4v-2l-5-10-4-4-1-4 5 2 4 4 6 7v2h2l1 4 4 2 9 8 4 6v2l-6-2-1 5h-3l-1 2h-2v2l-4-2-13-11-11-12-4-5v-5l-2-1 1-12z" fill="#0C2231"/>
<path transform="translate(1883,275)" d="m0 0h7l7 1 8 2 1 2 10 5 13 7 1 3h2l4 10 4 4v3h-2l1 5 3 1-1-4h2l1 7-3 5-3-1v-2l-3-1-7-11-6-7-11-9-16-10-14-5-16-1-1-2h14z" fill="#132633"/>
<path transform="translate(62,37)" d="m0 0h14l10 4 11 8 7 8 1 6-8-4-9-7v-2l-5-2-8-4-1-2 6-1-6-2-1 3-4 2-4 3-5 2-4 1v2l-10 6-14 9-3 1v2l-7 4 1-8 6-8 10-9 19-11z" fill="#07111E"/>
<path transform="translate(918,403)" d="m0 0 3 1 6 13 7 13 7 9 9 10 10 8 16 8 16 7 5 2-4 2-9 1-6-1v-2l-12-3-9-5-8-6v-2l-4-2-3-3v-2l-3-1v-2h-2l-10-15-3-5-2-9-3-8v-2h-2z" fill="#172C39"/>
<path transform="translate(576,665)" d="m0 0h10l1 1 25 4 10-2h3l-1 2h6l7-1 1 2-3 1 2 1v2l-29 1-51-1-18-1-10-2 1-4 6-2 16 3 4-1z" fill="#031829"/>
<path transform="translate(241,191)" d="m0 0 7 1 15 5 15 8 15 11 13 12 11 11 13 17 2 6-7-3v-2h-2l-3-6-12-14-5-5-8-6-5-3-7-6-12-8-10-5-4-1-5-1-5-3 2 4-17-4v-2l4-4h5z" fill="#2E424F"/>
<path transform="translate(1347,408)" d="m0 0 2 3 8 18 10 14 6 7 8 6 30 15 12 3-3 1-4 1-1 3-12-2-1-3-5-1-10-4-2-4-6-2-2-1v-2l-4-1-10-8-10-13-6-14z" fill="#1A2E3B"/>
<path transform="translate(497,377)" d="m0 0 2 3 5 19 7 20 8 12 9 10 11 9 9 6 13 6v1h-6l4 2-4 2-9-4-7-5-3-1-10-10v-2l-3-1v-2l-3-1-8-11h-1l-1 2-8-11-5-18v-12l-1-9z" fill="#233744"/>
<path transform="translate(994,190)" d="m0 0h41l21 5v1h-12l-6-1 1 2-19-1-2 1h-20l-17 4-5-1v2l-7 1-5 2 2-4-5 2-9 2-6 2 1-2-10 2 3-3 32-10 19-2z" fill="#374B57"/>
<path transform="translate(949,547)" d="m0 0 6 2 5 1 10 3 6 1 5 2 1 2 15 1 31-1 4-1h9l2 2-1 2 4-1h13v1l-18 2-2 4h-4v-2l-21 1h-9l-10 1-5-3-1-2-14-1-16-4-8-3-13-5 3-1 7 1z" fill="#253947"/>
<path transform="translate(446,994)" d="m0 0 2 4 2 7 4 3-1 2h3l6 14 2 4 5 8 10 20 7 7 1 5h2l6 7v2h2v2l4 2 5 7h-4l-12-11-11-12-8-10-8-11-11-21-5-18z" fill="#FDCD3B"/>
<path transform="translate(176,788)" d="m0 0h23l29 5 21 6 23 11 14 10 12 11 11 13 13 19 8 11 7 15 6 18 6 29 1 9v39l-3 17-5 19-2 2 1-7 5-21 2-16v-25l-3-22-7-32-6-15-7-13-12-17-11-14-9-10-10-9-15-10-16-8-13-4-22-5-18-3-32-1v-1z" fill="#FDFDFD"/>
<path transform="translate(924,322)" d="m0 0h3v2h2l-2 5-8 16-3 7-1 8v12l1 15 1 5h-2l-1-5h-3l-4-7-3-12v-15l4-10 5-8 4-4h2l1-4 3-3z" fill="#183F4D"/>
<path transform="translate(703,217)" d="m0 0h11l19 3 21 2 10 3 5 5-1 2-6-5-5-2h-6l-4 1v2l-5 1h-29l-10 6-3 2-5-2 2-1v-9l-4 2 6-8z" fill="#204352"/>
<path transform="translate(1428,792)" d="m0 0h22l17 1 24 4 18 6 19 9 14 10 11 9 5 6-4-2-9-8-16-11-17-9-14-5-6-2-18-3-13-2h-38l-28 7-24 8-17 9-19 14-14 14-11 16-12 21-2 2 1-5 6-11 10-16 9-11 14-14 18-13 17-9 30-10 19-4z" fill="#FDFDFD"/>
<path transform="translate(421,388)" d="m0 0h3v12h-2l2 1v9l2 4 2 8 1 9 5 12 3 3 4 8 1 5-4-2-6-5 2 4-1 3-8-16-7-25-2-10-1-4v-13z" fill="#0D2434"/>
<path transform="translate(1454,191)" d="m0 0 8 1 15 5 16 7 16 10 12 11 6 6v2l-5-2-14-10-8-6-7-4-2 2-16-8-15-5h-6l1-2h-13l1-2 9-3h2z" fill="#172A36"/>
<path transform="translate(112,413)" d="m0 0 2 4 3 10 10 17 6 8 4 5 8 7 5 4 16 8 10 4-4 3h-8l-18-9v-2l-5-2-3-3v-2l-4-2-3-3v-2h-2l-12-17-6-19-1-5z" fill="#26363F"/>
<path transform="translate(446,269)" d="m0 0 3 1-2 4-4 2-2 4 1 3-1 3h-2l-2 4-3 5h-3l-1 7 5-3-2 10-2-1 1 8-1-3-1 3h-2l2 10-2 7-1 8-2-4-2 5h-1l-1 5-2 1-2 11-1 26h-1l-1-15v-11l1-9 2-6 1-15 5-19 5-11 8-16 6-9z" fill="#22353F"/>
<path transform="translate(873,261)" d="m0 0 1 3-7 11-11 20-4 8-6 11-8 16-2 9-2 1v-10l6-19 7-16 7-14 8-12h3v-2z" fill="#0B1E2C"/>
<path transform="translate(1182,913)" d="m0 0 2 3 5 20 2 16v24l-2 15-4 15-7 22-6 12-12 17-13 16-13 13-14 10-13 9-16 8-16 6-19 6-4-1 27-9 13-5 17-9 19-14 11-9 9-10 15-20 9-14 7-16 5-18 4-19 1-11v-15l-6-34z" fill="#FDFDFD"/>
<path transform="translate(996,785)" d="m0 0h32l21 3 25 6 20 8 15 8 5 5-5-2-17-9-20-8-14-4-20-3-16-1h-20l-16 3-20 7-12 5-16 8-17 12-9 7-2-1 12-10 14-10 13-8 14-6 24-8z" fill="#FDFDFD"/>
<path transform="translate(1950,541)" d="m0 0h2l1 5 7 2 5 5 4 1 1 2 10 2h3l3 2 2-1 11 2 2 1 3 1v3h-21l1-2 2 1v-2h-4v-2h-5l-1 4-11-1-10-4-9-9 1-6h2z" fill="#03192A"/>
<path transform="translate(601,792)" d="m0 0 20 1 34 5 16 8 14 8 18 13 13 12 8 8 9 11-1 2-10-11-7-8-12-11-14-10-14-9-16-8-10-3-22-2-5-2-18-1-20 1-22 5-15 6-3-1 17-8 21-5z" fill="#FDFDFD"/>
<path transform="translate(582,191)" d="m0 0h13l4 1 18 1 16 4v1l-11-1-1 1h4v2l3 1-3 1-5-3v-3l-11 1v2h-4l-1-2-4 1-9-1-3 2-3-1-2-1h-11l-6 3-13 2-1 1h-7v-1l-6-1 4-2 18-5z" fill="#2E3F49"/>
<path transform="translate(1805,406)" d="m0 0h10l2 2v3l5-1h58l2 2-14 1h-43l-23 3-6 3-4 3v-2h-2l-2-4 2-5 8-4z" fill="#1C3C49"/>
<path transform="translate(209,186)" d="m0 0 22 2 6 1v1l-24-1v1l-12 3-11 2-26 4-4 1-1 2h-2l-1 2-8-1-1-1-4-1 27-11 14-1 13-1z" fill="#586469"/>
<path transform="translate(190,268)" d="m0 0 19 1 9 2 6 2 3 3 6 3 3 4v4l3 2-1 2-10-6-8-3-22-5-15-1v-1l9-1 1-3-6 1z" fill="#152933"/>
<path transform="translate(23,141)" d="m0 0h3l-1 3h3l1 8-4 1v5l1 1 2-2 2 20-1 6v16l-3 9-2 4-1-4z" fill="#03192A"/>
<path transform="translate(1389,194)" d="m0 0h6l-4 2 1 1 5 1 18 1 3 2-11 3h-5l2-2h-7l-3-1v2l-10 2-16 4 3-5-6 1-8 4-2-1 8-5z" fill="#1F303B"/>
<path transform="translate(1325,226)" d="m0 0 2 1-16 13-14 14-11 14v3 6l-3 4-9 18h-2l-1-3-4 8-1-4 10-20 11-17 9-11 13-14 13-10z" fill="#3A474D"/>
<path transform="translate(1850,788)" d="m0 0h9v1l-30 5-27 9-21 10-14 10-11 9-10 9-6 5-11 15-2 2 1-4 6-10 8-9 10-8 8-7 18-13 14-8 21-8 19-5z" fill="#FDFDFD"/>
<path transform="translate(1695,338)" d="m0 0 4 4 3 8 3 1h22l26-4 9-1v2l-48 8-8 1-10 1-5 4-4 7-1-3 4-8 4-5z" fill="#F1B536"/>
<path transform="translate(1885,192)" d="m0 0 11 1 25 7 2 2-3 2-4 3-10-4h-4l-4 1-12-3 2-4-4-3zm3 2v2h2v-2z" fill="#253945"/>
<path transform="translate(1268,304)" d="m0 0 1 4-2 4-3 28-2 17-1 30-3 1v-18l1-25v-8l2-9 1-13 3-1 2-9z" fill="#09141F"/>
<path transform="translate(62,37)" d="m0 0h14l10 4 11 8 7 8 1 6-8-4-9-7v-2l-5-2-8-4-1-2 6-1-7-2h-9l-11 4-2-1 7-4z" fill="#545D65"/>
<path transform="translate(1914,523)" d="m0 0h2v4h2l2 7v4l-3 2-5-1h-7l-6 2h-6l5-5 3-5 4-4z" fill="#062B3D"/>
<path transform="translate(159,790)" d="m0 0h8v1l-17 4-23 8-20 9-16 9-12 9-10 8-1 2h-2l-2 4-8 9-8 11v-3l9-13 7-7 6-7 11-9 10-7 10-6 21-10 25-9z" fill="#FDFDFD"/>
<path transform="translate(463,254)" d="m0 0 2 1-2 5-4 2-6 8-1 3-3 4-2-1-1 6v3l-3 5-1 5-8 10-1-2 1-3-5 3 2-8 3-1 5-8h2v-5-3l7-7-1-2 6-4h2l1-4 5-4z" fill="#031929"/>
<path transform="translate(729,859)" d="m0 0 6 2 7 11 11 23 5 18v6l-2-4-1-3h-2l-9-26-10-19-5-6z" fill="#FAC86D"/>
<path transform="translate(1577,43)" d="m0 0h11l11 7 11 11 8 11 1 6-4-2-5-8-5-4v-2l-4-2-9-8v-2l-4-1-5-2v-2h-11v-1z" fill="#3E484F"/>
<path transform="translate(20,71)" d="m0 0h1l2 64v88l-2 1v-63l-1-47-1-29-1-10z" fill="#05474B"/>
<path transform="translate(220,189)" d="m0 0 21 1v3l-12 3-8-1-11 1-18 4-4-1-1-2 11-3 14-2 3-2z" fill="#071D2D"/>
<path transform="translate(1513,524)" d="m0 0 5 1-4 7-9 11-2 1v-2l-6 1h-4l2-5 5-7z" fill="#0B2F3F"/>
<path transform="translate(27,318)" d="m0 0h1v22l-1 5 1 28 1 7-1 4-2-2v-8h-2v9h-1v-44h3l-1-4v-11z" fill="#03192A"/>
<path transform="translate(535,201)" d="m0 0h11l-3 3-4 3v3l-6 3h-6l-2 3h-4l-11 5-2-1 8-6 8-5-4-1z" fill="#1C2E3B"/>
<path transform="translate(86,1095)" d="m0 0 5 2 13 8 23 11 16 5 29 6 8 1 19 1v1l-11 1-19-2-26-5-21-7-16-8-18-11z" fill="#FDFDFD"/>
<path transform="translate(1618,166)" d="m0 0h1v29l-1 20-1 126h-1v-149l1-1z" fill="#FCFAF4"/>
<path transform="translate(1822,276)" d="m0 0h6l4 2-3 3-10 4-9 2-15 7-2-2h3l1-3h6l1-5 4-4z" fill="#152E3D"/>
<path transform="translate(867,267)" d="m0 0 1 2-7 11-1 3h-2l-2 7-8 13-3 5h-3l3-9 8-16 9-14h3z" fill="#2E373D"/>
<path transform="translate(19,970)" d="m0 0h1l2 16 4 20 7 19 8 16 9 15 13 16-1 2-8-9-9-12-8-13-7-14-6-18-5-26z" fill="#FDFDFD"/>
<path transform="translate(665,1109)" d="m0 0 3 1-14 6-24 9-8 1 1-3 8-6 10-4 13-1-1 2z" fill="#F9C457"/>
<path transform="translate(891,514)" d="m0 0 5 2 5 5 7 5 3 1 5 5 6 3 3 3h3l2 6-6-2-12-7-16-12-4-4z" fill="#526066"/>
<path transform="translate(1785,437)" d="m0 0h1l1 14 9 10 12 9 8 5 7 3-3 1h-3l-7-1-3-3-4-2-6-7-9-7-4-5-1-6 1-2z" fill="#223743"/>
<path transform="translate(1271,295)" d="m0 0 2 4-2 11 2-7h1l-1 9-2 16h-2l-1-1-2 5h-1v-9l1-11 2-4v-3l-3 9h-2l2-10h2l2-7z" fill="#0F2330"/>
<path transform="translate(949,547)" d="m0 0 6 2 5 1 10 3 6 1 2 2-2 2-7 1-10-2-8-3-13-5 3-1 7 1z" fill="#354854"/>
<path transform="translate(1533,108)" d="m0 0 2 3 1 18-2 28-1 7h-2v-28l1-26z" fill="#020B18"/>
<path transform="translate(1121,820)" d="m0 0 5 2 7 6 7 8 12 15 12 17 9 15 4 8 4 13v5l-2-4-7-19-7-12-11-16-13-17-11-12-9-8z" fill="#FDFDFD"/>
<path transform="translate(1534,384)" d="m0 0h1v9l-2 10 2-1-2 10-4 10-4 5-5 1 2-5 5-13 6-20z" fill="#3F4F56"/>
<path transform="translate(1542,60)" d="m0 0 3 1-1 4h-2l-1 5-3 3-4 7h-2l-1 56h-1v-61l10-13z" fill="#848888"/>
<path transform="translate(572,196)" d="m0 0h11l3 2v3l-18 2-10 3h-5l-1-2 4-4 10-1z" fill="#041E2E"/>
<path transform="translate(253,336)" d="m0 0 10 1-4 8v16l1 6-3-4-6-18-2-5v-3z" fill="#FCF1DB"/>
<path transform="translate(1879,193)" d="m0 0h6l3 3 3 2-8 3-9-1 1-4-6 1h-15l-13-2v-1h22zm9 1h2v2h-2z" fill="#031B2B"/>
<path transform="translate(567,193)" d="m0 0h11l-4 2-8 5-13 2-1 1h-7v-1l-6-1 4-2 18-5z" fill="#3D4D55"/>
<path transform="translate(475,238)" d="m0 0 2 1-4 5v3l-4 2-1 3h-2v2l-3 1-2 3h-2l-1 3h-2l-1 4-6 4h-2l2-5 10-10 7-8z" fill="#232F38"/>
<path transform="translate(1336,831)" d="m0 0 2 1-16 16-5 9-4 5-5 10h-2l-2 6-2 1-6 13-2 1 1-6 11-19 7-11 9-12z" fill="#FCC106"/>
<path transform="translate(710,1077)" d="m0 0 2 1-11 12-17 12-8 4-5 1 1-3 12-7h2v-2l11-7 11-9z" fill="#F9AE71"/>
<path transform="translate(1695,338)" d="m0 0 4 4 3 8 3 1 19 1v1l-18 1-10-1-2 5-7 11-1-3 4-8 4-5z" fill="#FDFDFD"/>
<path transform="translate(1920,202)" d="m0 0h6l10 5v4l2 1v2l-4 1-9-4v-2h-5l-2-4z" fill="#041E2E"/>
<path transform="translate(649,521)" d="m0 0 5 1 2 1v2l2 1-8 7-6 5-2-1v-8l4-6z" fill="#183946"/>
<path transform="translate(1822,410)" d="m0 0h58l2 2-14 1h-17l-30-1z" fill="#234454"/>
<path transform="translate(517,821)" d="m0 0 2 1-17 11-10 9-8 7-9 11-9 12-1-2 4-6 10-13 7-7 6-7 11-8 10-6z" fill="#FDFDFD"/>
<path transform="translate(420,367)" d="m0 0h4v21l-7 2v-16z" fill="#03192A"/>
<path transform="translate(1398,468)" d="m0 0h6l7 3 12 3-3 1-4 1-1 3-12-2-1-3-7-4z" fill="#2A3B45"/>
<path transform="translate(529,1106)" d="m0 0 6 2 13 6 24 7 17 4 13 2v1h-10l-21-4-25-8-16-8z" fill="#FDFDFD"/>
<path transform="translate(770,471)" d="m0 0h1v17l-2 60h-1v-69l1-1z" fill="#416670"/>
<path transform="translate(890,236)" d="m0 0 2 1-8 8-4 10h-2l-1 4h-2v2l-8 6h-2v2l-2-1 12-16z" fill="#747C7C"/>
<path transform="translate(559,281)" d="m0 0h8l-2 4-12 5-12 7-1-2 6-7h4l1-3h2v-2z" fill="#192F3C"/>
<path transform="translate(571,543)" d="m0 0 9 2 10 4v3l-7 1-5-2-11-1-4-2 1-2-4-1 4-1 8 3h6l-7-3z" fill="#051A2A"/>
<path transform="translate(676,415)" d="m0 0 1 2-1 7-4 2-1 5-7 8-3 3-2-1v-1l-8 8-2-1 15-15 8-10z" fill="#545C58"/>
<path transform="translate(1436,560)" d="m0 0m-29 1h29l1 2 14 1v1l-33 1-11-4z" fill="#757C73"/>
<path transform="translate(1325,226)" d="m0 0 2 1-16 13-14 14-11 14-5 8-1-2 7-11 9-11 13-14 13-10z" fill="#FCF7EC"/>
<path transform="translate(908,830)" d="m0 0 2 1-14 13-10 13-10 19-3 7-1-3 4-10 8-15 9-10 7-8z" fill="#FDFDFD"/>
<path transform="translate(446,269)" d="m0 0 3 1-2 4-4 2-2 4 1 3-1 3h-2l-2 4-3 5h-3l-1 6h-2l3-9 10-17z" fill="#585F61"/>
<path transform="translate(1742,231)" d="m0 0 2 1-4 6-16 16-6 4 2-4 9-11z" fill="#626B70"/>
<path transform="translate(347,305)" d="m0 0 2 2 2 13 3 16v19l-2-4v-6l-2-1-1-21-2-13z" fill="#58777E"/>
<path transform="translate(140,202)" d="m0 0 3 1-7 4h-2v2l5-1 1 2-1 2-4 1-7 3-3-2-5 3-4-1 16-9z" fill="#374649"/>
<path transform="translate(1814,194)" d="m0 0h4v2l3 1-4 4h-6l-1 2-6 1v-3h-9l4-2z" fill="#37474D"/>
<path transform="translate(1067,285)" d="m0 0 6 1 9 5-2 5h-2-3l-12-7 2-1 3 1z" fill="#23353D"/>
<path transform="translate(34,79)" d="m0 0 4 2v10l-2 14v17l-2 2-1-13-1-3 2-10v-7l1-6z" fill="#03192A"/>
<path transform="translate(868,491)" d="m0 0h4l1 4 4 2 6 6v2l3 1 2 3v5l-7-6-12-14z" fill="#546368"/>
<path transform="translate(1747,229)" d="m0 0 2 2-5 5-2 5h-2l-2 4-5 4-5 6-4 2 2-5 9-10 6-7 5-5z" fill="#031C2C"/>
<path transform="translate(463,254)" d="m0 0 2 1-2 5-4 2-6 8-1 3-3 4-2-1v2l-5 3h-2l2-5 6-4-1-3 6-4h2l1-4 5-4z" fill="#021626"/>
<path transform="translate(280,542)" d="m0 0 4 2-19 10-10 3-3-1 2-1-1-2 3-1 4 1v-2l5 1v-3l7-3 1-2z" fill="#3F4F57"/>
<path transform="translate(466,564)" d="m0 0 3 1-19 19-2 4-4-2 10-12h2l2-4h2v-2z" fill="#5B656A"/>
<path transform="translate(20,71)" d="m0 0h1l1 29v35h-1l-2-50-1-10z" fill="#043341"/>
<path transform="translate(962,197)" d="m0 0 5 1-4 4-11 3-6 2 1-2-10 2 3-3z" fill="#4B5658"/>
<path transform="translate(1852,270)" d="m0 0h8l3 1 1 4h-13v2h-8l3-5z" fill="#051C2D"/>
<path transform="translate(991,192)" d="m0 0 3 1h25l-2 2-4 1-4-1h-14l-3 2-4-1 1-2-10 2-3 2-1-1h-9l3-2 12-2z" fill="#364A51"/>
<path transform="translate(1724,253)" d="m0 0 1 2-1 6-7 6-2 4h-2l-1 2v-3l1-1 2-9z" fill="#192832"/>
<path transform="translate(1618,166)" d="m0 0h1v29l-2 30h-1v-33l1-1z" fill="#8E968D"/>
<path transform="translate(1301,251)" d="m0 0v3l-3 4h-2l-1 4h-2l-1 6h-2l-2 5-3 1-1-4 8-11z" fill="#031828"/>
<path transform="translate(647,202)" d="m0 0 6 2 15 8-3 1-2-1-1 2-10-5-5-2-1-3z" fill="#39494E"/>
<path transform="translate(508,216)" d="m0 0h2l-2 4-8 7-5 3-5 2h-3l5-5 13-9z" fill="#021727"/>
<path transform="translate(358,394)" d="m0 0 3 4-1 26-2 1-1-14-1-5z" fill="#031A2B"/>
<path transform="translate(1406,555)" d="m0 0 9 2 14 4v1h-18l-9-2v-1l5-1z" fill="#03192A"/>
<path transform="translate(1200,347)" d="m0 0 3 1v31h-1l-2-13v-13l-1-5z" fill="#03192A"/>
<path transform="translate(1348,213)" d="m0 0 3 1 3 2v2l-3 1-7-1v2l-9 4-3 3h-3l1-3 14-9z" fill="#021726"/>
<path transform="translate(610,273)" d="m0 0 12 3 5 3v4h-3l-3-5-2-1 2 4-11-2v-3l-3-1z" fill="#03192A"/>
<path transform="translate(741,1041)" d="m0 0 1 2-7 11-9 11-1-4 3-7 6-5h2z" fill="#FBCA7B"/>
<path transform="translate(1012,271)" d="m0 0 9 1 3 4h-19l-1 1h-5v-3z" fill="#031A2B"/>
<path transform="translate(1820,558)" d="m0 0 13 2 1 1 12 1v1h-28l-5-1 4-1v-2z" fill="#042333"/>
<path transform="translate(1367,203)" d="m0 0h5l-5 8-5 1-5-1h-2v-2z" fill="#021626"/>
<path transform="translate(445,945)" d="m0 0h1l2 45-2-1-2-24-1-9 1-2z" fill="#FDC006"/>
<path transform="translate(858,294)" d="m0 0h3l-2 6-7 13-7 11-2-1 7-13 5-7v-5z" fill="#03192A"/>
<path transform="translate(890,1067)" d="m0 0 5 5 14 15 10 9 4 4-5-2-12-11-5-5-8-9-3-4z" fill="#FDFDFD"/>
<path transform="translate(494,224)" d="m0 0 2 1-7 5v2l4-2-4 5-5 4-5 2 2-4 3-2-4 2h-3l8-7z" fill="#6F787A"/>
<path transform="translate(578,198)" d="m0 0h7l1 3-18 2-7 1 1-3z" fill="#03192A"/>
<path transform="translate(970,196)" d="m0 0h5l2 4-3 3h-5l-5 2 2-4v-3z" fill="#031A2A"/>
<path transform="translate(637,289)" d="m0 0h8l8 3 1 4-3 1-1 2-8-6-5-3z" fill="#1E2E38"/>
<path transform="translate(274,540)" d="m0 0 4 1-1 2h-3zm-2 2 2 2-2 3-7 2v3l-5-1 1-5 7-2 2-1 2 1z" fill="#041D2D"/>
<path transform="translate(468,244)" d="m0 0 2 1-8 8-6 8-1 4-6 4h-2l2-5 10-10 7-8z" fill="#91989A"/>
<path transform="translate(118,525)" d="m0 0 3 3v2h2l6 8 3 2-1 4-3-1-2-4h-2l-4-6-2-2-1-5z" fill="#071C2A"/>
<path transform="translate(713,840)" d="m0 0 4 2 12 13 3 4-1 2-9-8-9-12z" fill="#F8A205"/>
<path transform="translate(1356,432)" d="m0 0 4 1 7 10 1 5-4-2-1-3h-2l-5-9z" fill="#22313D"/>
<path transform="translate(840,316)" d="m0 0 1 3-2 9-3 11-2 1v-10l4-12h2z" fill="#031827"/>
<path transform="translate(1841,194)" d="m0 0h33v2l-5 1h-15l-13-2z" fill="#03192A"/>
<path transform="translate(993,192)" d="m0 0h41v1l-9 1-4 2-7 1 3-3h-24z" fill="#021525"/>
<path transform="translate(1116,353)" d="m0 0h2l2 6 2 13v10h-2v5h-1v-14l-1-11z" fill="#7C8A88"/>
<path transform="translate(416,348)" d="m0 0 2 2-1 9-1 26h-1l-1-15v-11l1-9z" fill="#5B7681"/>
<path transform="translate(1958,561)" d="m0 0 5 1 12 3 5 1 24 1v1h-26l-18-4z" fill="#FCF7EC"/>
<path transform="translate(833,413)" d="m0 0 2 2 2 7 3 5v3 10l-2-3-4-15z" fill="#626E67"/>
<path transform="translate(1481,288)" d="m0 0 9 2 10 9 1 2-2 2-7-7-11-7z" fill="#596466"/>
<path transform="translate(171,191)" d="m0 0h22v1l-5 1-14 1-12 2 3-3z" fill="#02111F"/>
<path transform="translate(107,165)" d="m0 0h1v23h-1l-3-12 1-10z" fill="#03192A"/>
<path transform="translate(110,320)" d="m0 0 4 1h3l-5 10-5-5z" fill="#2B4955"/>
<path transform="translate(39,49)" d="m0 0 2 1-7 8-8 8h-2l2-5 8-8z" fill="#82898A"/>
<path transform="translate(978,555)" d="m0 0 3 1 1 2 11 1-2 2h-16l-3-1v-2l5-2z" fill="#27424F"/>
<path transform="translate(103,395)" d="m0 0 4 1 1 8h-1v9l1 6-2 1-1-2-2-18z" fill="#03192A"/>
<path transform="translate(1144,243)" d="m0 0 4 1 15 15v2l-3-1v-2l-4-2-9-8z" fill="#021423"/>
<path transform="translate(1306,868)" d="m0 0 2 1v3h-2l-2 6-2 1-6 13-2 1 1-6z" fill="#FDCC22"/>
<path transform="translate(765,552)" d="m0 0h2l-1 9-3 11-4-3 3-7 2-4z" fill="#467177"/>
<path transform="translate(1494,456)" d="m0 0 2 1-4 5-5 3-7 2-4-1z" fill="#80898A"/>
<path transform="translate(568,592)" d="m0 0h9l1 7-11-1v-3l4-1z" fill="#021727"/>
<path transform="translate(171,485)" d="m0 0 15 3 1 1 9 1v1l-9 1-7-1-6-2v-2l-3-1z" fill="#03192A"/>
<path transform="translate(1679,405)" d="m0 0 2 3 1 21h2v11l-2-3-2-7z" fill="#697670"/>
<path transform="translate(1537,383)" d="m0 0h1l-1 13-3 7-2 1 2-11 2-9z" fill="#021626"/>
<path transform="translate(552,286)" d="m0 0 1 2 2 1-14 8-1-2 6-7z" fill="#394E58"/>
<path transform="translate(759,227)" d="m0 0h5l5 5v6h-2v-2l-3-1v-2h-2l-1-5z" fill="#031B2C"/>
<path transform="translate(2029,461)" d="m0 0h1l1 11-2 17h-1v-25z" fill="#07121C"/>
<path transform="translate(676,415)" d="m0 0 1 2-1 7-4 2-1 5-4 2-2-1 2-4 5-6z" fill="#616C6C"/>
<path transform="translate(1124,317)" d="m0 0 4 1 4 6-2 7-3-4-3-9z" fill="#03192A"/>
<path transform="translate(1792,201)" d="m0 0 3 1-9 4v2h-2v2l-8 2v-3l8-5z" fill="#848A8B"/>
<path transform="translate(1955,554)" d="m0 0h3l2 5 5 2 3 3-5-1-8-3-4-4 5 1z" fill="#31464C"/>
<path transform="translate(242,552)" d="m0 0h3v3l-1 1 2 1-4 1v2h-5l-1-4 2-3z" fill="#031827"/>
<path transform="translate(1398,468)" d="m0 0h6l7 3-3 3-8-1-5-4z" fill="#223B48"/>
<path transform="translate(443,587)" d="m0 0v3l-2 9 4 13-1 3-5-12v-11z" fill="#FBEBC9"/>
<path transform="translate(1816,562)" d="m0 0h36v1l-5 1-26 1-5-2z" fill="#B9BBAE"/>
<path transform="translate(140,202)" d="m0 0 3 1-7 4h-2v2l5-1 1 2-1 2-7 1v-4l1-3z" fill="#616A66"/>
<path transform="translate(635,198)" d="m0 0 12 3v1l-8-1v2l-5 2-3-6z" fill="#374953"/>
<path transform="translate(1611,542)" d="m0 0h1v5l-7 6-10 1 3-2 7-3 4-2 1-4z" fill="#041F2F"/>
<path transform="translate(918,534)" d="m0 0 4 1 3 3h3l2 6-6-2-6-5z" fill="#2D424D"/>
<path transform="translate(287,534)" d="m0 0h6l-2 4-4 2h-5v-3l1-2z" fill="#031B2C"/>
<path transform="translate(679,527)" d="m0 0 2 1 1 9-1 5-1 7h-2z" fill="#03192A"/>
<path transform="translate(332,262)" d="m0 0 2 3 4 8-1 2-5-2-3-5v-3l2 2z" fill="#293F4E"/>
<path transform="translate(1325,228)" d="m0 0h2v2l-8 7-3 1v2l-4 3-2-1 9-10z" fill="#031828"/>
<path transform="translate(935,207)" d="m0 0 7 1-2 3-5 3-7-2 4-3z" fill="#293841"/>
<path transform="translate(1923,202)" d="m0 0 5 1 8 4-3 2-6-2h-3l-3-2z" fill="#4B636D"/>
<path transform="translate(1818,194)" d="m0 0h12l1 3-9 2-5 1 2-3z" fill="#031828"/>
<path transform="translate(20,71)" d="m0 0h1v29h-1l-2-25z" fill="#6D838D"/>
<path transform="translate(1814,481)" d="m0 0 6 2h7 3l2 3-5 1-11-2-3-3z" fill="#03192A"/>
<path transform="translate(1924,444)" d="m0 0v3l-3 5-4 3h-2l-2 4h-2v2l-3 1 2-4 5-6 5-3z" fill="#021322"/>
<path transform="translate(418,414)" d="m0 0 5 5v14l-2-4-3-11z" fill="#4D5F5F"/>
<path transform="translate(928,212)" d="m0 0h2l-2 4-2 3-9 2 2-4z" fill="#021321"/>
<path transform="translate(106,119)" d="m0 0h1l2 7v15l-1-3-2-1z" fill="#052130"/>
<path transform="translate(1692,319)" d="m0 0 1 3 22 2 5 1v1l-14-1h-11l-3 1z" fill="#FDFDFD"/>
<path transform="translate(518,209)" d="m0 0h2v2l-12 6-10 7-2-1 10-8z" fill="#EBE4D2"/>
<path transform="translate(1793,202)" d="m0 0h5l1 3-4 1-2-1-1 2-6 2v-2l-2-1z" fill="#031828"/>
<path transform="translate(2028,969)" d="m0 0h2v8l-3 16h-1l1-17z" fill="#FAD586"/>
<path transform="translate(272,405)" d="m0 0h1v8h2v7l-2 9-2-1 1-10z" fill="#92A0A4"/>
<path transform="translate(1442,196)" d="m0 0m-15 1h15l-2 2-9 1-3 1h-10l1-2z" fill="#03192A"/>
<path transform="translate(338,275)" d="m0 0 2 2 3 7-1 5-1-2-3-1-1-6z" fill="#465655"/>
<path transform="translate(1571,107)" d="m0 0h7v3l-2 4-5-1z" fill="#03192A"/>
<path transform="translate(80,560)" d="m0 0m-1 1 8 1-4 2-8 3-6-1v-2l10-1z" fill="#C3C4BC"/>
<path transform="translate(1469,277)" d="m0 0 10 2 8 5-3 1-9-5h-6z" fill="#03192A"/>
<path transform="translate(1768,214)" d="m0 0 4 1-2 3-6 2-3 3h-3l2-4z" fill="#021525"/>
<path transform="translate(616,196)" d="m0 0h4v3l5 2-4 1h-9l-1-2 5-3z" fill="#03192A"/>
<path transform="translate(25,442)" d="m0 0h1l1 16-2 4-1-2v-16z" fill="#03192A"/>
<path transform="translate(421,369)" d="m0 0h1l1 9v11l-4-1z" fill="#052130"/>
<path transform="translate(147,201)" d="m0 0 3 1-5 1-1 3-4 1-1 2h-5v-2l9-5z" fill="#021524"/>
<path transform="translate(205,188)" d="m0 0h10l5 1v1l-7 2-1 1h-7l3-3z" fill="#042434"/>
<path transform="translate(536,589)" d="m0 0 7 2 2 3-8 1h-2l1-3-2-2z" fill="#03192A"/>
<path transform="translate(190,189)" d="m0 0h23v1l-12 3-3-2-8-1z" fill="#2B3F49"/>
<path transform="translate(224,282)" d="m0 0h7l8 7-1 2-10-6z" fill="#2E6567"/>
<path transform="translate(500,221)" d="m0 0 3 1-8 6h-2v2l-4 3-2-1 5-5z" fill="#021220"/>
<path transform="translate(311,1069)" d="m0 0v3l-7 8-7 6-2-1z" fill="#FDFDFD"/>
<path transform="translate(419,347)" d="m0 0 2 2-1 9-2 6h-1v-11z" fill="#03192A"/>
<path transform="translate(1806,284)" d="m0 0h2v2l2 1-15 7-2-2h3l1-3h6v-2l3-1z" fill="#3D5561"/>
<path transform="translate(1806,281)" d="m0 0m-1 1m-1 1m-1 1m-2 1h2v4l-6 1-1 2-4-1h2l1-3z" fill="#031A2A"/>
<path transform="translate(1037,193)" d="m0 0h11l8 2v1h-12l-7-2z" fill="#021525"/>
<path transform="translate(668,569)" d="m0 0 1 3-5 6h-3-3l8-8z" fill="#3D4C53"/>
<path transform="translate(1070,551)" d="m0 0 2 1v5l-12 3v-2l6-1v-2h3l-1-3z" fill="#284249"/>
<path transform="translate(1360,548)" d="m0 0 10 2 8 3v2l-12-3-6-3z" fill="#8FA2A3"/>
<path transform="translate(1268,322)" d="m0 0h1l1 10-2 5-3-3z" fill="#031C2C"/>
<path transform="translate(983,194)" d="m0 0h6l-1 3-11 2 1-2-2-2z" fill="#031624"/>
<path transform="translate(218,561)" d="m0 0h3l1 3-4 2-3-1-11-1v-1l13-1z" fill="#667D88"/>
<path transform="translate(260,551)" d="m0 0 7 1-2 2-10 3-3-1 2-1-1-2 3-1 4 1z" fill="#65757A"/>
<path transform="translate(1731,246)" d="m0 0 2 3-5 6-4 2 2-5z" fill="#03192A"/>
<path transform="translate(908,223)" d="m0 0h2l-1 4-6 4h-5l4-4z" fill="#646862"/>
<path transform="translate(1403,556)" d="m0 0 4 1 2 2-4 1 1 2-10-1v-2l7-2z" fill="#42575E"/>
<path transform="translate(1388,548)" d="m0 0 5 2v2l2 1h-2l-1 2-2-2-6-2z" fill="#041E2E"/>
<path transform="translate(1316,512)" d="m0 0 3 1 4 4v2l-3 1-1 2-4-5 2-1z" fill="#142C35"/>
<path transform="translate(1903,462)" d="m0 0 2 1-5 6-4 1-3 3-3-2 11-7z" fill="#68695D"/>
<path transform="translate(1343,403)" d="m0 0h2l-1 10 1 1v7l-2-2-2-13z" fill="#03192A"/>
<path transform="translate(76,88)" d="m0 0 3 1 1 4-2 3-4-2 1-5z" fill="#03192A"/>
<path transform="translate(992,564)" d="m0 0h18v1l-14 2z" fill="#8C9895"/>
<path transform="translate(446,269)" d="m0 0 3 1-2 4-4 2-4 6-1-2 4-6z" fill="#9B9A90"/>
<path transform="translate(524,208)" d="m0 0 2 1-13 8-2-1 4-4 5-1v-2z" fill="#020F1C"/>
<path transform="translate(758,929)" d="m0 0 2 1 1 5v8l-2-2-2-11z" fill="#F89D06"/>
<path transform="translate(119,534)" d="m0 0 9 6-1 3-10-7z" fill="#3E5259"/>
<path transform="translate(1269,451)" d="m0 0 1 2h2l4 8-1 4-5-9z" fill="#81AEAB"/>
<path transform="translate(482,234)" d="m0 0 3 1-5 4-5 5h-3l5-6z" fill="#02101E"/>
<path transform="translate(639,201)" d="m0 0 8 1-1 3-4 2-4-4z" fill="#031727"/>
<path transform="translate(1389,194)" d="m0 0h6l-4 2-8 3-1 1h-7l3-2z" fill="#B1AF9D"/>
<path transform="translate(701,830)" d="m0 0 4 1 9 8-2 2-8-8z" fill="#FDC206"/>
<path transform="translate(1699,478)" d="m0 0 5 1 2 10-3-3z" fill="#59656A"/>
<path transform="translate(637,289)" d="m0 0h8l3 2-1 2-2 2-8-5z" fill="#50626D"/>
<path transform="translate(1293,893)" d="m0 0h1v7l-2 8h-2l1-8z" fill="#FDE281"/>
<path transform="translate(1587,498)" d="m0 0 1 3-1 6h-2l1 4h-4l3-10v-2z" fill="#052130"/>
<path transform="translate(561,463)" d="m0 0 6 1 7 3v2h-7l-1-3-5-2z" fill="#7F8884"/>
<path transform="translate(415,391)" d="m0 0h1v8h2l-1 9-2-4z" fill="#919C89"/>
<path transform="translate(269,391)" d="m0 0h2l2 6v7h-2l-2-9z" fill="#536A71"/>
<path transform="translate(1693,356)" d="m0 0 1 2-7 11-1-3 3-6z" fill="#FBEBC7"/>
<path transform="translate(1925,346)" d="m0 0 8 2v2l-2 2h-7l3-3-2-1z" fill="#152832"/>
<path transform="translate(1058,282)" d="m0 0 5 1 1 4-3 1-4-2z" fill="#1D313A"/>
<path transform="translate(1724,249)" d="m0 0h3v3l-9 6 2-4z" fill="#7F7E74"/>
<path transform="translate(754,223)" d="m0 0 8 1 6 4 1 4-9-6-6-2z" fill="#FDFDFD"/>
<path transform="translate(722,852)" d="m0 0 5 1 5 6-1 2-9-8z" fill="#F9900A"/>
<path transform="translate(519,597)" d="m0 0h8l-1 3-5 1-3-2z" fill="#03192A"/>
<path transform="translate(656,579)" d="m0 0 2 1-1 2 2 1-2 3-7-1 5-5z" fill="#28373E"/>
<path transform="translate(642,452)" d="m0 0h3l-1 3-6 2v2h-4v-2z" fill="#021524"/>
<path transform="translate(1681,379)" d="m0 0 2 3-1 6-1 9h-1v-14z" fill="#FADA97"/>
<path transform="translate(501,348)" d="m0 0h2l-3 9-2 7h-1l1-8z" fill="#739398"/>
<path transform="translate(1106,329)" d="m0 0 4 2 3 9-1 3-6-13z" fill="#697A7D"/>
<path transform="translate(837,328)" d="m0 0 1 2-2 9-2 1v-10z" fill="#031929"/>
<path transform="translate(1505,212)" d="m0 0 9 6 1 2-5-1-5-5z" fill="#313E44"/>
<path transform="translate(754,914)" d="m0 0 3 1 1 4v10h-1l-2-12z" fill="#FC4F1A"/>
<path transform="translate(454,574)" d="m0 0h2l-2 4-8 9-2-1z" fill="#D6DCDF"/>
<path transform="translate(1783,428)" d="m0 0 3 3v3l-7 1 2-5h2z" fill="#03192A"/>
<path transform="translate(1337,219)" d="m0 0 2 1-7 7h-3l1-3z" fill="#031A2A"/>
<path transform="translate(1925,210)" d="m0 0h8l3 5-10-3z" fill="#03192A"/>
</svg>
